<svg fill="none" height="24" viewBox="0 0 24 24" width="24" xmlns="http://www.w3.org/2000/svg"><path d="m18.9989 21.8743c1.7258-.4437 3.0011-2.0101 3.0011-3.8743v-12c0-2.20914-1.7909-4-4-4h-12c-2.20914 0-4 1.79086-4 4v12c0 1.8642 1.27532 3.4306 3.00111 3.8743m13.99779 0c-.3193.082-.654.1257-.9989.1257h-12c-.3449 0-.67961-.0437-.99889-.1257m13.99779 0c-.0671-3.808-3.1749-6.8743-6.9989-6.8743-3.82399 0-6.93182 3.0663-6.99889 6.8743m9.99889-12.8743c0-1.65685-1.3431-3-3-3s-3 1.34315-3 3c0 1.6569 1.3431 3 3 3s3-1.3431 3-3z" stroke="#28303f" stroke-width="1.5"/></svg>